<svg xmlns="http://www.w3.org/2000/svg" width="164" height="50" viewBox="0 0 164 50"><path d="M130.37,37.27h-6.7V40h6.46a4.11,4.11,0,0,0,4.47-4.22c0-2.49-1.49-3.73-4-3.73h-3a1.24,1.24,0,1,1,0-2.48h5.72l1.24-2.74h-6.71c-2.73,0-4.47,1.74-4.47,4,0,2.48,1.49,3.72,4,3.72h3a1.18,1.18,0,0,1,1.25,1.25c.24,1-.25,1.49-1.25,1.49Zm-12.17,0h-6.71V40H118c2.74,0,4.47-1.74,4.47-4.22s-1.49-3.73-4-3.73h-3a1.24,1.24,0,1,1,0-2.48h5.71l1.24-2.74h-6.7c-2.74,0-4.47,1.74-4.47,4,0,2.48,1.49,3.72,4,3.72h3a1.17,1.17,0,0,1,1.24,1.25,1.16,1.16,0,0,1-1.24,1.49Zm-8.69-8V26.59H99.07V39.75h10.44V37h-7.46V34.29h7.21V31.55h-7.21V29.07h7.46Zm-16.9,0c1.25,0,1.74.74,1.74,1.49s-.49,1.49-1.74,1.49H88.89V29.07l3.72.25ZM88.89,35h1.49l4,4.72h3.73l-4.47-5a4,4,0,0,0,3.48-4c0-2.49-1.74-4.22-4.48-4.22h-7V39.75h3L88.89,35Zm-8-4A1.57,1.57,0,0,1,79.2,32.8h-4V29.32H79a1.77,1.77,0,0,1,2,1.74Zm-8.7-4.47V39.75h3V35.28h4a4.37,4.37,0,0,0,4.72-4.47,4.3,4.3,0,0,0-4.47-4.47l-7.21.25ZM67.77,39.75H71.5L66.28,33l5.22-6.45H67.77l-3.23,4.22-3.23-4.22H57.59L62.8,33,57.59,39.5h3.72l3.23-4.22ZM56.59,29.32V26.59H46.16V39.75H56.59V37H49.14V34.29h7.2V31.55h-7.2V29.07h7.45Zm66.72-14.1,5.21,8h3.73V10h-3v8.69l-.75-1.24L123.8,10h-4V23.17h3v-9ZM110.39,15l1-2.73,1,2.73,1.24,3h-4.47Zm5.22,8.2h3.23L113.12,10h-4l-5.72,13.17h3.23l1.25-2.74h6.45Zm-13.92,0h0l1.25-2.74h-.75c-2.23,0-3.48-1.49-3.48-3.72v-.25c0-2.24,1.25-3.73,3.48-3.73h3.23V10h-3.48c-4,0-6.21,2.73-6.21,6.46v.25c0,4,2.24,6.46,6,6.46Zm-11.17,0h3V10.25h-3V23.17ZM84.06,12.73c1.24,0,1.74.75,1.74,1.49s-.5,1.49-1.74,1.49H80.33V12.48l3.73.25Zm-3.73,5.72h1.49l4,4.72h3.72l-4.47-5a4,4,0,0,0,3.48-4A4.11,4.11,0,0,0,84.06,10h-7V23.17h3l.25-4.72Zm-5.47-5.72V10H64.43V23.17H74.86V20.43H67.41V17.7h7.21V15H67.41V12.48h7.45ZM52.26,23.17H55l3.73-10.69V23.17h3V10h-5l-3,8.94-3-8.94h-5V23.17h3V12.48ZM36.11,15l1-2.73,1,2.73,1.24,3H34.87Zm5.22,8.2h3.23L38.84,10H35.12L29.4,23.17h3.23l1.24-2.74h6.46Z" fill="#3683c5"/><script xmlns=""/>
<path xmlns="http://www.w3.org/2000/svg" d="M130.37,37.27h-6.7V40h6.46a4.11,4.11,0,0,0,4.47-4.22c0-2.49-1.49-3.73-4-3.73h-3a1.24,1.24,0,1,1,0-2.48h5.72l1.24-2.74h-6.71c-2.73,0-4.47,1.74-4.47,4,0,2.48,1.49,3.72,4,3.72h3a1.18,1.18,0,0,1,1.25,1.25c.24,1-.25,1.49-1.25,1.49Zm-12.17,0h-6.71V40H118c2.74,0,4.47-1.74,4.47-4.22s-1.49-3.73-4-3.73h-3a1.24,1.24,0,1,1,0-2.48h5.71l1.24-2.74h-6.7c-2.74,0-4.47,1.74-4.47,4,0,2.48,1.49,3.72,4,3.72h3a1.17,1.17,0,0,1,1.24,1.25,1.16,1.16,0,0,1-1.24,1.49Zm-8.69-8V26.59H99.07V39.75h10.44V37h-7.46V34.29h7.21V31.55h-7.21V29.07h7.46Zm-16.9,0c1.25,0,1.74.74,1.74,1.49s-.49,1.49-1.74,1.49H88.89V29.07l3.72.25ZM88.89,35h1.49l4,4.72h3.73l-4.47-5a4,4,0,0,0,3.48-4c0-2.49-1.74-4.22-4.48-4.22h-7V39.75h3L88.89,35Zm-8-4A1.57,1.57,0,0,1,79.2,32.8h-4V29.32H79a1.77,1.77,0,0,1,2,1.74Zm-8.7-4.47V39.75h3V35.28h4a4.37,4.37,0,0,0,4.72-4.47,4.3,4.3,0,0,0-4.47-4.47l-7.21.25ZM67.77,39.75H71.5L66.28,33l5.22-6.45H67.77l-3.23,4.22-3.23-4.22H57.59L62.8,33,57.59,39.5h3.72l3.23-4.22ZM56.59,29.32V26.59H46.16V39.75H56.59V37H49.14V34.29h7.2V31.55h-7.2V29.07h7.45Zm66.72-14.1,5.21,8h3.73V10h-3v8.69l-.75-1.24L123.8,10h-4V23.17h3v-9ZM110.39,15l1-2.73,1,2.73,1.24,3h-4.47Zm5.22,8.2h3.23L113.12,10h-4l-5.72,13.17h3.23l1.25-2.74h6.45Zm-13.92,0h0l1.25-2.74h-.75c-2.23,0-3.48-1.49-3.48-3.72v-.25c0-2.24,1.25-3.73,3.48-3.73h3.23V10h-3.48c-4,0-6.21,2.73-6.21,6.46v.25c0,4,2.24,6.46,6,6.46Zm-11.17,0h3V10.25h-3V23.17ZM84.06,12.73c1.24,0,1.74.75,1.74,1.49s-.5,1.49-1.74,1.49H80.33V12.48l3.73.25Zm-3.73,5.72h1.49l4,4.72h3.72l-4.47-5a4,4,0,0,0,3.48-4A4.11,4.11,0,0,0,84.06,10h-7V23.17h3l.25-4.72Zm-5.47-5.72V10H64.43V23.17H74.86V20.43H67.41V17.7h7.21V15H67.41V12.48h7.45ZM52.26,23.17H55l3.73-10.69V23.17h3V10h-5l-3,8.94-3-8.94h-5V23.17h3V12.48ZM36.11,15l1-2.73,1,2.73,1.24,3H34.87Zm5.22,8.2h3.23L38.84,10H35.12L29.4,23.17h3.23l1.24-2.74h6.46Z" fill="#3683c5"/>
</svg>